<svg xmlns="http://www.w3.org/2000/svg" width="157.176" height="81.574" viewBox="0 0 157.176 81.574">
  <g id="Group_16602" data-name="Group 16602" transform="translate(-8708 149)">
    <path id="Path_23123" data-name="Path 23123" d="M7.588-9.39H4.556V0H3.325V-9.39H.3V-10.5H7.588Zm6.05,5.94h-5.3a2.805,2.805,0,0,0,.674,1.934,2.323,2.323,0,0,0,1.772.681,3.685,3.685,0,0,0,2.329-.835V-.542A4.353,4.353,0,0,1,10.5.176a3.17,3.17,0,0,1-2.5-1.022A4.182,4.182,0,0,1,7.1-3.721,4.1,4.1,0,0,1,8.09-6.573a3.182,3.182,0,0,1,2.465-1.1,2.82,2.82,0,0,1,2.278.952,3.97,3.97,0,0,1,.806,2.644Zm-1.23-1.018a2.444,2.444,0,0,0-.5-1.619,1.709,1.709,0,0,0-1.373-.579,1.94,1.94,0,0,0-1.443.608,2.759,2.759,0,0,0-.732,1.589ZM20.566-.344a3.9,3.9,0,0,1-2.051.52A3.4,3.4,0,0,1,15.927-.868a3.782,3.782,0,0,1-.985-2.706A4.158,4.158,0,0,1,16-6.552a3.715,3.715,0,0,1,2.834-1.124,3.945,3.945,0,0,1,1.743.366v1.23a3.054,3.054,0,0,0-1.787-.586,2.415,2.415,0,0,0-1.886.824,3.127,3.127,0,0,0-.736,2.164,2.977,2.977,0,0,0,.692,2.08,2.386,2.386,0,0,0,1.857.762,3.01,3.01,0,0,0,1.846-.652ZM28.608,0h-1.2V-4.321q0-2.344-1.743-2.344a1.9,1.9,0,0,0-1.479.677,2.525,2.525,0,0,0-.6,1.74V0h-1.2V-11.1h1.2v4.849h.029a2.728,2.728,0,0,1,2.461-1.421q2.534,0,2.534,3.054ZM37.1,0H35.9V-4.277q0-2.388-1.743-2.388a1.891,1.891,0,0,0-1.49.677,2.511,2.511,0,0,0-.59,1.71V0h-1.2V-7.5h1.2v1.245H32.1a2.707,2.707,0,0,1,2.461-1.421,2.3,2.3,0,0,1,1.882.795,3.54,3.54,0,0,1,.652,2.3Zm5.4.176A3.479,3.479,0,0,1,39.84-.875a3.893,3.893,0,0,1-.992-2.787A4.056,4.056,0,0,1,39.88-6.614a3.713,3.713,0,0,1,2.791-1.062,3.364,3.364,0,0,1,2.618,1.033,4.1,4.1,0,0,1,.941,2.864A4.029,4.029,0,0,1,45.216-.9,3.554,3.554,0,0,1,42.5.176Zm.088-6.841a2.285,2.285,0,0,0-1.831.787,3.234,3.234,0,0,0-.674,2.172,3.058,3.058,0,0,0,.681,2.1,2.315,2.315,0,0,0,1.824.769,2.2,2.2,0,0,0,1.791-.754A3.274,3.274,0,0,0,45-3.735,3.33,3.33,0,0,0,44.374-5.9,2.186,2.186,0,0,0,42.583-6.665ZM49.351,0h-1.2V-11.1h1.2Zm5.566.176A3.479,3.479,0,0,1,52.262-.875a3.893,3.893,0,0,1-.992-2.787A4.056,4.056,0,0,1,52.3-6.614a3.713,3.713,0,0,1,2.791-1.062,3.364,3.364,0,0,1,2.618,1.033,4.1,4.1,0,0,1,.941,2.864A4.029,4.029,0,0,1,57.638-.9,3.554,3.554,0,0,1,54.917.176ZM55-6.665a2.285,2.285,0,0,0-1.831.787A3.234,3.234,0,0,0,52.5-3.706a3.058,3.058,0,0,0,.681,2.1A2.315,2.315,0,0,0,55-.835,2.2,2.2,0,0,0,56.8-1.589a3.274,3.274,0,0,0,.626-2.146A3.33,3.33,0,0,0,56.8-5.9,2.186,2.186,0,0,0,55-6.665ZM66.973-.6q0,4.131-3.955,4.131A5.31,5.31,0,0,1,60.586,3V1.8A4.994,4.994,0,0,0,63,2.5q2.769,0,2.769-2.944v-.82h-.029A2.809,2.809,0,0,1,63.164.176a2.816,2.816,0,0,1-2.252-1,4,4,0,0,1-.853-2.684,4.669,4.669,0,0,1,.919-3.04,3.071,3.071,0,0,1,2.516-1.128A2.445,2.445,0,0,1,65.742-6.46h.029V-7.5h1.2Zm-1.2-2.791V-4.5a2.146,2.146,0,0,0-.6-1.531,1.989,1.989,0,0,0-1.505-.637,2.086,2.086,0,0,0-1.743.809,3.612,3.612,0,0,0-.63,2.267,3.1,3.1,0,0,0,.6,2,1.952,1.952,0,0,0,1.6.751,2.091,2.091,0,0,0,1.644-.718A2.675,2.675,0,0,0,65.771-3.391ZM70.02-9.4a.761.761,0,0,1-.549-.22.742.742,0,0,1-.227-.557.754.754,0,0,1,.227-.56.755.755,0,0,1,.549-.223.776.776,0,0,1,.56.223.747.747,0,0,1,.231.56.742.742,0,0,1-.231.549A.769.769,0,0,1,70.02-9.4ZM70.605,0H69.4V-7.5h1.2Zm8.459-3.45h-5.3a2.805,2.805,0,0,0,.674,1.934,2.323,2.323,0,0,0,1.772.681,3.685,3.685,0,0,0,2.329-.835V-.542A4.353,4.353,0,0,1,75.93.176a3.17,3.17,0,0,1-2.5-1.022,4.182,4.182,0,0,1-.908-2.875,4.1,4.1,0,0,1,.992-2.853,3.182,3.182,0,0,1,2.465-1.1,2.82,2.82,0,0,1,2.278.952,3.97,3.97,0,0,1,.806,2.644Zm-1.23-1.018a2.444,2.444,0,0,0-.5-1.619,1.709,1.709,0,0,0-1.373-.579,1.94,1.94,0,0,0-1.443.608,2.759,2.759,0,0,0-.732,1.589Zm2.593,4.2V-1.56a3.555,3.555,0,0,0,2.161.725q1.582,0,1.582-1.055a.915.915,0,0,0-.135-.509,1.35,1.35,0,0,0-.366-.37,2.819,2.819,0,0,0-.542-.289q-.311-.128-.67-.267a8.631,8.631,0,0,1-.875-.4,2.644,2.644,0,0,1-.63-.454,1.69,1.69,0,0,1-.381-.575,2.034,2.034,0,0,1-.128-.754,1.792,1.792,0,0,1,.242-.934,2.143,2.143,0,0,1,.645-.681,3.006,3.006,0,0,1,.919-.414,4.077,4.077,0,0,1,1.066-.139,4.3,4.3,0,0,1,1.743.337v1.216a3.4,3.4,0,0,0-1.9-.542,2.226,2.226,0,0,0-.608.077,1.488,1.488,0,0,0-.465.216,1,1,0,0,0-.3.333.878.878,0,0,0-.106.428,1.028,1.028,0,0,0,.106.491,1.08,1.08,0,0,0,.311.352,2.379,2.379,0,0,0,.5.278q.293.125.667.271a9.276,9.276,0,0,1,.894.392,3.065,3.065,0,0,1,.674.454,1.774,1.774,0,0,1,.428.582,1.878,1.878,0,0,1,.15.784,1.848,1.848,0,0,1-.245.967,2.1,2.1,0,0,1-.656.681,3,3,0,0,1-.945.4,4.665,4.665,0,0,1-1.121.132A4.255,4.255,0,0,1,80.427-.271Z" transform="translate(8763.74 -91)" fill="#026197"/>
    <path id="Path_23122" data-name="Path 23122" d="M30.031-5.661V.2A7.472,7.472,0,0,1,28.76.318a7.756,7.756,0,0,1-5.676-2.24,7.564,7.564,0,0,1-2.271-5.616,7.567,7.567,0,0,1,2.293-5.57,7.605,7.605,0,0,1,5.578-2.286,7.741,7.741,0,0,1,5.775,2.142A7.97,7.97,0,0,1,36.57-7.4V0H30.909V-6.993A2.918,2.918,0,0,0,30.326-8.9a1.92,1.92,0,0,0-1.567-.711,2.11,2.11,0,0,0-1.544.651,2.11,2.11,0,0,0-.651,1.544,2.12,2.12,0,0,0,.59,1.544,2,2,0,0,0,1.5.605A2.569,2.569,0,0,0,30.031-5.661Zm15.5-15V0H39.87V-20.662ZM54.174,5.585H48.513V-7.008a8.525,8.525,0,0,1,1.816-5.646,7.432,7.432,0,0,1,2.656-2,7.834,7.834,0,0,1,3.307-.742,7.817,7.817,0,0,1,5.691,2.271A7.5,7.5,0,0,1,64.3-7.553,7.617,7.617,0,0,1,62-2.013,7.4,7.4,0,0,1,56.551.318q-.515,0-1.514-.106V-6.024a2.223,2.223,0,0,0,1.393.56,2.019,2.019,0,0,0,1.506-.651,2.148,2.148,0,0,0,.628-1.544,2.036,2.036,0,0,0-.651-1.521,2.166,2.166,0,0,0-1.559-.628q-2.18,0-2.18,3.012Zm18.27-20.677V0H66.783V-15.091Zm-2.815-6.736a2.771,2.771,0,0,1,1.99.81,2.573,2.573,0,0,1,.84,1.915,2.558,2.558,0,0,1-.795,1.938,2.832,2.832,0,0,1-2.036.757,2.832,2.832,0,0,1-2.036-.757A2.558,2.558,0,0,1,66.8-19.1a2.573,2.573,0,0,1,.84-1.915A2.771,2.771,0,0,1,69.629-21.827Zm11.186,1.166v5.782h2.543V-8.9H80.815a4,4,0,0,0,.568,2.482,2.607,2.607,0,0,0,2.081.681V.212q-.439.015-.651.015a7.694,7.694,0,0,1-3.625-.893,7.339,7.339,0,0,1-2.732-2.422,9.193,9.193,0,0,1-1.3-5.177v-12.4Zm13.714,15V.2a7.472,7.472,0,0,1-1.271.121,7.756,7.756,0,0,1-5.676-2.24,7.564,7.564,0,0,1-2.271-5.616,7.567,7.567,0,0,1,2.293-5.57,7.605,7.605,0,0,1,5.578-2.286,7.741,7.741,0,0,1,5.775,2.142,7.97,7.97,0,0,1,2.112,5.85V0H95.407V-6.993A2.918,2.918,0,0,0,94.824-8.9a1.92,1.92,0,0,0-1.567-.711,2.11,2.11,0,0,0-1.544.651,2.11,2.11,0,0,0-.651,1.544,2.12,2.12,0,0,0,.59,1.544,2,2,0,0,0,1.5.605A2.569,2.569,0,0,0,94.529-5.661Z" transform="translate(8764.108 -110.373)" fill="#2da8df"/>
    <path id="Path_23124" data-name="Path 23124" d="M20.011-20.662l-5.449,9.37L19.98,0h-6.9L8.4-11.413l5.3-9.249Zm-11.792,0V0H2.074V-20.662Z" transform="translate(8764.108 -110.373)" fill="#fa7107"/>
    <g id="Group_3" data-name="Group 3" transform="translate(8708 -149)">
      <path id="Path_1" data-name="Path 1" d="M575.5,181.5l20.947,28.611V187.29h-3.576Z" transform="translate(-575.5 -175.199)" fill="#6dcdf1"/>
      <path id="Path_2" data-name="Path 2" d="M700.5,215.5v24.183l20.947-11.751Z" transform="translate(-679.212 -203.409)" fill="#016096"/>
      <path id="Path_3" data-name="Path 3" d="M721.447,144.5,700.5,156.591l20.947,12.432Z" transform="translate(-679.212 -144.5)" fill="#2ca6df"/>
      <path id="Path_4" data-name="Path 4" d="M700.5,357.5v24.183l20.947-12.091Z" transform="translate(-679.212 -321.226)" fill="#026197"/>
      <path id="Path_5" data-name="Path 5" d="M721.447,452.853V428.5L700.5,440.591Z" transform="translate(-679.212 -380.134)" fill="#2ea8e0"/>
      <path id="Path_6" data-name="Path 6" d="M602.255,357.5,582.5,383.045l5.109,6.3h4.6v5.79l5.961,7.664,4.087-5.279Z" transform="translate(-581.308 -321.226)" fill="#006097"/>
    </g>
  </g>
</svg>
