<svg width="208" height="50" viewBox="0 0 208 50" fill="none" xmlns="http://www.w3.org/2000/svg">
<path d="M0 34.5H11L17 24L11 14H0L4 24L0 34.5Z" fill="#00B0F0"/>
<path d="M6 40.5H17L23 30L17 20H6L10 30L6 40.5Z" fill="#FFFF10"/>
<path d="M25.5 30H15L18 19L15 9.5H27L30.5 19L25.5 30Z" fill="#3FD03F"/>
<path d="M45.2 16.16L35.8 39.04C35.6933 39.36 35.5067 39.6133 35.24 39.8C34.9733 39.9867 34.6933 40.08 34.4 40.08C33.8933 40.08 33.52 39.9467 33.28 39.68C33.04 39.4133 32.92 39.0933 32.92 38.72C32.8933 38.5333 32.92 38.3333 33 38.12L43.36 12.92C43.4933 12.5467 43.6933 12.28 43.96 12.12C44.2533 11.9333 44.5733 11.8533 44.92 11.88C45.2667 11.88 45.5733 11.9733 45.84 12.16C46.1333 12.3467 46.3333 12.6 46.44 12.92L56.76 37.88C56.84 38.0933 56.88 38.3067 56.88 38.52C56.88 39 56.72 39.3867 56.4 39.68C56.08 39.9467 55.72 40.08 55.32 40.08C55 40.08 54.7067 39.9867 54.44 39.8C54.1733 39.6133 53.9733 39.3467 53.84 39L44.32 16.12L45.2 16.16ZM37.8 32.52L39.16 29.4H51.04L51.64 32.52H37.8ZM69.9022 18.8C71.2622 18.8 72.4889 18.9467 73.5822 19.24C74.6755 19.5333 75.5422 19.9333 76.1822 20.44C76.8222 20.9467 77.1422 21.52 77.1422 22.16C77.1422 22.5067 77.0222 22.84 76.7822 23.16C76.5422 23.48 76.2222 23.64 75.8222 23.64C75.4489 23.64 75.1422 23.5733 74.9022 23.44C74.6889 23.3067 74.4755 23.1333 74.2622 22.92C74.0755 22.7067 73.8089 22.52 73.4622 22.36C73.1422 22.1733 72.6755 22.0267 72.0622 21.92C71.4489 21.8133 70.8355 21.76 70.2222 21.76C68.7555 21.76 67.4622 22.1067 66.3422 22.8C65.2489 23.4933 64.3822 24.4267 63.7422 25.6C63.1022 26.7733 62.7822 28.1067 62.7822 29.6C62.7822 31.0933 63.0889 32.4267 63.7022 33.6C64.3155 34.7733 65.1689 35.7067 66.2622 36.4C67.3555 37.0933 68.6222 37.44 70.0622 37.44C70.9955 37.44 71.7422 37.36 72.3022 37.2C72.8622 37.04 73.3289 36.8533 73.7022 36.64C74.1822 36.3733 74.5422 36.1067 74.7822 35.84C75.0489 35.5733 75.3955 35.44 75.8222 35.44C76.2755 35.44 76.6222 35.5867 76.8622 35.88C77.1289 36.1733 77.2622 36.5333 77.2622 36.96C77.2622 37.44 76.9289 37.9467 76.2622 38.48C75.5955 39.0133 74.6889 39.4667 73.5422 39.84C72.4222 40.2133 71.1422 40.4 69.7022 40.4C67.6755 40.4 65.9022 39.9333 64.3822 39C62.8622 38.04 61.6755 36.7467 60.8222 35.12C59.9955 33.4667 59.5822 31.6267 59.5822 29.6C59.5822 27.5733 60.0089 25.7467 60.8622 24.12C61.7422 22.4933 62.9555 21.2 64.5022 20.24C66.0489 19.28 67.8489 18.8 69.9022 18.8ZM90.6444 18.8C92.0044 18.8 93.231 18.9467 94.3244 19.24C95.4177 19.5333 96.2844 19.9333 96.9244 20.44C97.5644 20.9467 97.8844 21.52 97.8844 22.16C97.8844 22.5067 97.7644 22.84 97.5244 23.16C97.2844 23.48 96.9644 23.64 96.5644 23.64C96.191 23.64 95.8844 23.5733 95.6444 23.44C95.431 23.3067 95.2177 23.1333 95.0044 22.92C94.8177 22.7067 94.551 22.52 94.2044 22.36C93.8844 22.1733 93.4177 22.0267 92.8044 21.92C92.191 21.8133 91.5777 21.76 90.9644 21.76C89.4977 21.76 88.2044 22.1067 87.0844 22.8C85.991 23.4933 85.1244 24.4267 84.4844 25.6C83.8444 26.7733 83.5244 28.1067 83.5244 29.6C83.5244 31.0933 83.831 32.4267 84.4444 33.6C85.0577 34.7733 85.911 35.7067 87.0044 36.4C88.0977 37.0933 89.3644 37.44 90.8044 37.44C91.7377 37.44 92.4844 37.36 93.0444 37.2C93.6044 37.04 94.071 36.8533 94.4444 36.64C94.9244 36.3733 95.2844 36.1067 95.5244 35.84C95.791 35.5733 96.1377 35.44 96.5644 35.44C97.0177 35.44 97.3644 35.5867 97.6044 35.88C97.871 36.1733 98.0044 36.5333 98.0044 36.96C98.0044 37.44 97.671 37.9467 97.0044 38.48C96.3377 39.0133 95.431 39.4667 94.2844 39.84C93.1644 40.2133 91.8844 40.4 90.4444 40.4C88.4177 40.4 86.6444 39.9333 85.1244 39C83.6044 38.04 82.4177 36.7467 81.5644 35.12C80.7377 33.4667 80.3244 31.6267 80.3244 29.6C80.3244 27.5733 80.751 25.7467 81.6044 24.12C82.4844 22.4933 83.6977 21.2 85.2444 20.24C86.791 19.28 88.591 18.8 90.6444 18.8ZM111.747 40.4C109.613 40.4 107.747 39.9467 106.147 39.04C104.547 38.1333 103.293 36.8933 102.387 35.32C101.507 33.72 101.067 31.88 101.067 29.8C101.067 27.48 101.52 25.5067 102.427 23.88C103.36 22.2267 104.56 20.9733 106.027 20.12C107.52 19.24 109.093 18.8 110.747 18.8C111.973 18.8 113.16 19.0267 114.307 19.48C115.453 19.9333 116.467 20.6 117.347 21.48C118.227 22.3333 118.933 23.3733 119.467 24.6C120 25.8 120.28 27.1467 120.307 28.64C120.307 29.0667 120.147 29.4267 119.827 29.72C119.507 30.0133 119.133 30.16 118.707 30.16H102.907L102.187 27.4H117.587L116.947 27.96V27.08C116.84 25.9867 116.467 25.0533 115.827 24.28C115.213 23.48 114.453 22.8667 113.547 22.44C112.667 22.0133 111.733 21.8 110.747 21.8C109.947 21.8 109.147 21.9467 108.347 22.24C107.573 22.5067 106.867 22.96 106.227 23.6C105.613 24.2133 105.107 25.0133 104.707 26C104.333 26.9867 104.147 28.1733 104.147 29.56C104.147 31.1067 104.453 32.4667 105.067 33.64C105.707 34.8133 106.587 35.7467 107.707 36.44C108.827 37.1067 110.133 37.44 111.627 37.44C112.56 37.44 113.373 37.32 114.067 37.08C114.76 36.84 115.36 36.5467 115.867 36.2C116.373 35.8267 116.8 35.4533 117.147 35.08C117.493 34.84 117.827 34.72 118.147 34.72C118.547 34.72 118.867 34.8533 119.107 35.12C119.373 35.3867 119.507 35.7067 119.507 36.08C119.507 36.5333 119.293 36.9333 118.867 37.28C118.12 38.1067 117.107 38.84 115.827 39.48C114.547 40.0933 113.187 40.4 111.747 40.4ZM142.156 10.4C142.61 10.4 142.983 10.56 143.276 10.88C143.596 11.1733 143.756 11.5467 143.756 12V38.36C143.756 38.8133 143.596 39.2 143.276 39.52C142.983 39.84 142.61 40 142.156 40C141.676 40 141.29 39.84 140.996 39.52C140.703 39.2 140.556 38.8133 140.556 38.36V34.56L141.316 34.28C141.316 34.92 141.116 35.6 140.716 36.32C140.316 37.0133 139.77 37.6667 139.076 38.28C138.383 38.8933 137.556 39.4 136.596 39.8C135.663 40.2 134.65 40.4 133.556 40.4C131.77 40.4 130.143 39.9333 128.676 39C127.236 38.0667 126.09 36.7867 125.236 35.16C124.41 33.5333 123.996 31.68 123.996 29.6C123.996 27.4933 124.41 25.6267 125.236 24C126.09 22.3733 127.236 21.1067 128.676 20.2C130.116 19.2667 131.716 18.8 133.476 18.8C134.596 18.8 135.65 18.9867 136.636 19.36C137.623 19.7333 138.476 20.24 139.196 20.88C139.943 21.52 140.53 22.2267 140.956 23C141.383 23.7733 141.596 24.5467 141.596 25.32L140.556 25.08V12C140.556 11.5467 140.703 11.1733 140.996 10.88C141.29 10.56 141.676 10.4 142.156 10.4ZM133.916 37.44C135.25 37.44 136.423 37.1067 137.436 36.44C138.476 35.7467 139.276 34.8133 139.836 33.64C140.423 32.44 140.716 31.0933 140.716 29.6C140.716 28.08 140.423 26.7333 139.836 25.56C139.276 24.3867 138.476 23.4667 137.436 22.8C136.423 22.1067 135.25 21.76 133.916 21.76C132.61 21.76 131.436 22.1067 130.396 22.8C129.383 23.4667 128.583 24.3867 127.996 25.56C127.41 26.7333 127.116 28.08 127.116 29.6C127.116 31.0667 127.41 32.4 127.996 33.6C128.583 34.7733 129.383 35.7067 130.396 36.4C131.436 37.0933 132.61 37.44 133.916 37.44ZM159.247 40.4C157.113 40.4 155.247 39.9467 153.647 39.04C152.047 38.1333 150.793 36.8933 149.887 35.32C149.007 33.72 148.567 31.88 148.567 29.8C148.567 27.48 149.02 25.5067 149.927 23.88C150.86 22.2267 152.06 20.9733 153.527 20.12C155.02 19.24 156.593 18.8 158.247 18.8C159.473 18.8 160.66 19.0267 161.807 19.48C162.953 19.9333 163.967 20.6 164.847 21.48C165.727 22.3333 166.433 23.3733 166.967 24.6C167.5 25.8 167.78 27.1467 167.807 28.64C167.807 29.0667 167.647 29.4267 167.327 29.72C167.007 30.0133 166.633 30.16 166.207 30.16H150.407L149.687 27.4H165.087L164.447 27.96V27.08C164.34 25.9867 163.967 25.0533 163.327 24.28C162.713 23.48 161.953 22.8667 161.047 22.44C160.167 22.0133 159.233 21.8 158.247 21.8C157.447 21.8 156.647 21.9467 155.847 22.24C155.073 22.5067 154.367 22.96 153.727 23.6C153.113 24.2133 152.607 25.0133 152.207 26C151.833 26.9867 151.647 28.1733 151.647 29.56C151.647 31.1067 151.953 32.4667 152.567 33.64C153.207 34.8133 154.087 35.7467 155.207 36.44C156.327 37.1067 157.633 37.44 159.127 37.44C160.06 37.44 160.873 37.32 161.567 37.08C162.26 36.84 162.86 36.5467 163.367 36.2C163.873 35.8267 164.3 35.4533 164.647 35.08C164.993 34.84 165.327 34.72 165.647 34.72C166.047 34.72 166.367 34.8533 166.607 35.12C166.873 35.3867 167.007 35.7067 167.007 36.08C167.007 36.5333 166.793 36.9333 166.367 37.28C165.62 38.1067 164.607 38.84 163.327 39.48C162.047 40.0933 160.687 40.4 159.247 40.4ZM174.216 40C173.763 40 173.376 39.84 173.056 39.52C172.763 39.2 172.616 38.8133 172.616 38.36V20.92C172.616 20.4667 172.763 20.0933 173.056 19.8C173.376 19.48 173.763 19.32 174.216 19.32C174.696 19.32 175.083 19.48 175.376 19.8C175.67 20.0933 175.816 20.4667 175.816 20.92V26.2L175.336 25.36C175.496 24.5333 175.776 23.7333 176.176 22.96C176.603 22.16 177.136 21.4533 177.776 20.84C178.416 20.2 179.15 19.7067 179.976 19.36C180.803 18.9867 181.71 18.8 182.696 18.8C183.283 18.8 183.816 18.9467 184.296 19.24C184.803 19.5067 185.056 19.8933 185.056 20.4C185.056 20.96 184.91 21.3733 184.616 21.64C184.323 21.9067 183.99 22.04 183.616 22.04C183.27 22.04 182.936 21.9733 182.616 21.84C182.296 21.68 181.896 21.6 181.416 21.6C180.75 21.6 180.083 21.7867 179.416 22.16C178.776 22.5067 178.176 23.0133 177.616 23.68C177.083 24.3467 176.643 25.1067 176.296 25.96C175.976 26.7867 175.816 27.68 175.816 28.64V38.36C175.816 38.8133 175.656 39.2 175.336 39.52C175.043 39.84 174.67 40 174.216 40ZM197.333 40.4C195.199 40.4 193.333 39.9467 191.733 39.04C190.133 38.1333 188.879 36.8933 187.973 35.32C187.093 33.72 186.653 31.88 186.653 29.8C186.653 27.48 187.106 25.5067 188.013 23.88C188.946 22.2267 190.146 20.9733 191.613 20.12C193.106 19.24 194.679 18.8 196.333 18.8C197.559 18.8 198.746 19.0267 199.893 19.48C201.039 19.9333 202.053 20.6 202.933 21.48C203.813 22.3333 204.519 23.3733 205.053 24.6C205.586 25.8 205.866 27.1467 205.893 28.64C205.893 29.0667 205.733 29.4267 205.413 29.72C205.093 30.0133 204.719 30.16 204.293 30.16H188.493L187.773 27.4H203.173L202.533 27.96V27.08C202.426 25.9867 202.053 25.0533 201.413 24.28C200.799 23.48 200.039 22.8667 199.133 22.44C198.253 22.0133 197.319 21.8 196.333 21.8C195.533 21.8 194.733 21.9467 193.933 22.24C193.159 22.5067 192.453 22.96 191.813 23.6C191.199 24.2133 190.693 25.0133 190.293 26C189.919 26.9867 189.733 28.1733 189.733 29.56C189.733 31.1067 190.039 32.4667 190.653 33.64C191.293 34.8133 192.173 35.7467 193.293 36.44C194.413 37.1067 195.719 37.44 197.213 37.44C198.146 37.44 198.959 37.32 199.653 37.08C200.346 36.84 200.946 36.5467 201.453 36.2C201.959 35.8267 202.386 35.4533 202.733 35.08C203.079 34.84 203.413 34.72 203.733 34.72C204.133 34.72 204.453 34.8533 204.693 35.12C204.959 35.3867 205.093 35.7067 205.093 36.08C205.093 36.5333 204.879 36.9333 204.453 37.28C203.706 38.1067 202.693 38.84 201.413 39.48C200.133 40.0933 198.773 40.4 197.333 40.4Z" fill="white"/>
</svg>
