<svg width="267" height="63" viewBox="0 0 267 63" fill="none" xmlns="http://www.w3.org/2000/svg">
<path d="M0 48H13.5882L21 34.6829L13.5882 22H0L4.94118 34.6829L0 48Z" fill="#00B0F0"/>
<path d="M7 55H21.2353L29 41.6829L21.2353 29H7L12.1765 41.6829L7 55Z" fill="#FFFF10"/>
<path d="M32.5484 42H19L22.871 28.0488L19 16H34.4839L39 28.0488L32.5484 42Z" fill="#3FD03F"/>
<path d="M63.5 20.2L51.75 48.8C51.6167 49.2 51.3833 49.5167 51.05 49.75C50.7167 49.9833 50.3667 50.1 50 50.1C49.3667 50.1 48.9 49.9333 48.6 49.6C48.3 49.2667 48.15 48.8667 48.15 48.4C48.1167 48.1667 48.15 47.9167 48.25 47.65L61.2 16.15C61.3667 15.6833 61.6167 15.35 61.95 15.15C62.3167 14.9167 62.7167 14.8167 63.15 14.85C63.5833 14.85 63.9667 14.9667 64.3 15.2C64.6667 15.4333 64.9167 15.75 65.05 16.15L77.95 47.35C78.05 47.6167 78.1 47.8833 78.1 48.15C78.1 48.75 77.9 49.2333 77.5 49.6C77.1 49.9333 76.65 50.1 76.15 50.1C75.75 50.1 75.3833 49.9833 75.05 49.75C74.7167 49.5167 74.4667 49.1833 74.3 48.75L62.4 20.15L63.5 20.2ZM54.25 40.65L55.95 36.75H70.8L71.55 40.65H54.25ZM94.3777 23.5C96.0777 23.5 97.6111 23.6833 98.9777 24.05C100.344 24.4167 101.428 24.9167 102.228 25.55C103.028 26.1833 103.428 26.9 103.428 27.7C103.428 28.1333 103.278 28.55 102.978 28.95C102.678 29.35 102.278 29.55 101.778 29.55C101.311 29.55 100.928 29.4667 100.628 29.3C100.361 29.1333 100.094 28.9167 99.8277 28.65C99.5944 28.3833 99.2611 28.15 98.8277 27.95C98.4277 27.7167 97.8444 27.5333 97.0777 27.4C96.3111 27.2667 95.5444 27.2 94.7777 27.2C92.9444 27.2 91.3277 27.6333 89.9277 28.5C88.5611 29.3667 87.4777 30.5333 86.6777 32C85.8777 33.4667 85.4777 35.1333 85.4777 37C85.4777 38.8667 85.8611 40.5333 86.6277 42C87.3944 43.4667 88.4611 44.6333 89.8277 45.5C91.1944 46.3667 92.7777 46.8 94.5777 46.8C95.7444 46.8 96.6777 46.7 97.3777 46.5C98.0777 46.3 98.6611 46.0667 99.1277 45.8C99.7277 45.4667 100.178 45.1333 100.478 44.8C100.811 44.4667 101.244 44.3 101.778 44.3C102.344 44.3 102.778 44.4833 103.078 44.85C103.411 45.2167 103.578 45.6667 103.578 46.2C103.578 46.8 103.161 47.4333 102.328 48.1C101.494 48.7667 100.361 49.3333 98.9277 49.8C97.5277 50.2667 95.9277 50.5 94.1277 50.5C91.5944 50.5 89.3777 49.9167 87.4777 48.75C85.5777 47.55 84.0944 45.9333 83.0277 43.9C81.9944 41.8333 81.4777 39.5333 81.4777 37C81.4777 34.4667 82.0111 32.1833 83.0777 30.15C84.1777 28.1167 85.6944 26.5 87.6277 25.3C89.5611 24.1 91.8111 23.5 94.3777 23.5ZM120.305 23.5C122.005 23.5 123.539 23.6833 124.905 24.05C126.272 24.4167 127.355 24.9167 128.155 25.55C128.955 26.1833 129.355 26.9 129.355 27.7C129.355 28.1333 129.205 28.55 128.905 28.95C128.605 29.35 128.205 29.55 127.705 29.55C127.239 29.55 126.855 29.4667 126.555 29.3C126.289 29.1333 126.022 28.9167 125.755 28.65C125.522 28.3833 125.189 28.15 124.755 27.95C124.355 27.7167 123.772 27.5333 123.005 27.4C122.239 27.2667 121.472 27.2 120.705 27.2C118.872 27.2 117.255 27.6333 115.855 28.5C114.489 29.3667 113.405 30.5333 112.605 32C111.805 33.4667 111.405 35.1333 111.405 37C111.405 38.8667 111.789 40.5333 112.555 42C113.322 43.4667 114.389 44.6333 115.755 45.5C117.122 46.3667 118.705 46.8 120.505 46.8C121.672 46.8 122.605 46.7 123.305 46.5C124.005 46.3 124.589 46.0667 125.055 45.8C125.655 45.4667 126.105 45.1333 126.405 44.8C126.739 44.4667 127.172 44.3 127.705 44.3C128.272 44.3 128.705 44.4833 129.005 44.85C129.339 45.2167 129.505 45.6667 129.505 46.2C129.505 46.8 129.089 47.4333 128.255 48.1C127.422 48.7667 126.289 49.3333 124.855 49.8C123.455 50.2667 121.855 50.5 120.055 50.5C117.522 50.5 115.305 49.9167 113.405 48.75C111.505 47.55 110.022 45.9333 108.955 43.9C107.922 41.8333 107.405 39.5333 107.405 37C107.405 34.4667 107.939 32.1833 109.005 30.15C110.105 28.1167 111.622 26.5 113.555 25.3C115.489 24.1 117.739 23.5 120.305 23.5ZM146.683 50.5C144.017 50.5 141.683 49.9333 139.683 48.8C137.683 47.6667 136.117 46.1167 134.983 44.15C133.883 42.15 133.333 39.85 133.333 37.25C133.333 34.35 133.9 31.8833 135.033 29.85C136.2 27.7833 137.7 26.2167 139.533 25.15C141.4 24.05 143.367 23.5 145.433 23.5C146.967 23.5 148.45 23.7833 149.883 24.35C151.317 24.9167 152.583 25.75 153.683 26.85C154.783 27.9167 155.667 29.2167 156.333 30.75C157 32.25 157.35 33.9333 157.383 35.8C157.383 36.3333 157.183 36.7833 156.783 37.15C156.383 37.5167 155.917 37.7 155.383 37.7H135.633L134.733 34.25H153.983L153.183 34.95V33.85C153.05 32.4833 152.583 31.3167 151.783 30.35C151.017 29.35 150.067 28.5833 148.933 28.05C147.833 27.5167 146.667 27.25 145.433 27.25C144.433 27.25 143.433 27.4333 142.433 27.8C141.467 28.1333 140.583 28.7 139.783 29.5C139.017 30.2667 138.383 31.2667 137.883 32.5C137.417 33.7333 137.183 35.2167 137.183 36.95C137.183 38.8833 137.567 40.5833 138.333 42.05C139.133 43.5167 140.233 44.6833 141.633 45.55C143.033 46.3833 144.667 46.8 146.533 46.8C147.7 46.8 148.717 46.65 149.583 46.35C150.45 46.05 151.2 45.6833 151.833 45.25C152.467 44.7833 153 44.3167 153.433 43.85C153.867 43.55 154.283 43.4 154.683 43.4C155.183 43.4 155.583 43.5667 155.883 43.9C156.217 44.2333 156.383 44.6333 156.383 45.1C156.383 45.6667 156.117 46.1667 155.583 46.6C154.65 47.6333 153.383 48.55 151.783 49.35C150.183 50.1167 148.483 50.5 146.683 50.5ZM184.695 13C185.262 13 185.729 13.2 186.095 13.6C186.495 13.9667 186.695 14.4333 186.695 15V47.95C186.695 48.5167 186.495 49 186.095 49.4C185.729 49.8 185.262 50 184.695 50C184.095 50 183.612 49.8 183.245 49.4C182.879 49 182.695 48.5167 182.695 47.95V43.2L183.645 42.85C183.645 43.65 183.395 44.5 182.895 45.4C182.395 46.2667 181.712 47.0833 180.845 47.85C179.979 48.6167 178.945 49.25 177.745 49.75C176.579 50.25 175.312 50.5 173.945 50.5C171.712 50.5 169.679 49.9167 167.845 48.75C166.045 47.5833 164.612 45.9833 163.545 43.95C162.512 41.9167 161.995 39.6 161.995 37C161.995 34.3667 162.512 32.0333 163.545 30C164.612 27.9667 166.045 26.3833 167.845 25.25C169.645 24.0833 171.645 23.5 173.845 23.5C175.245 23.5 176.562 23.7333 177.795 24.2C179.029 24.6667 180.095 25.3 180.995 26.1C181.929 26.9 182.662 27.7833 183.195 28.75C183.729 29.7167 183.995 30.6833 183.995 31.65L182.695 31.35V15C182.695 14.4333 182.879 13.9667 183.245 13.6C183.612 13.2 184.095 13 184.695 13ZM174.395 46.8C176.062 46.8 177.529 46.3833 178.795 45.55C180.095 44.6833 181.095 43.5167 181.795 42.05C182.529 40.55 182.895 38.8667 182.895 37C182.895 35.1 182.529 33.4167 181.795 31.95C181.095 30.4833 180.095 29.3333 178.795 28.5C177.529 27.6333 176.062 27.2 174.395 27.2C172.762 27.2 171.295 27.6333 169.995 28.5C168.729 29.3333 167.729 30.4833 166.995 31.95C166.262 33.4167 165.895 35.1 165.895 37C165.895 38.8333 166.262 40.5 166.995 42C167.729 43.4667 168.729 44.6333 169.995 45.5C171.295 46.3667 172.762 46.8 174.395 46.8ZM206.058 50.5C203.392 50.5 201.058 49.9333 199.058 48.8C197.058 47.6667 195.492 46.1167 194.358 44.15C193.258 42.15 192.708 39.85 192.708 37.25C192.708 34.35 193.275 31.8833 194.408 29.85C195.575 27.7833 197.075 26.2167 198.908 25.15C200.775 24.05 202.742 23.5 204.808 23.5C206.342 23.5 207.825 23.7833 209.258 24.35C210.692 24.9167 211.958 25.75 213.058 26.85C214.158 27.9167 215.042 29.2167 215.708 30.75C216.375 32.25 216.725 33.9333 216.758 35.8C216.758 36.3333 216.558 36.7833 216.158 37.15C215.758 37.5167 215.292 37.7 214.758 37.7H195.008L194.108 34.25H213.358L212.558 34.95V33.85C212.425 32.4833 211.958 31.3167 211.158 30.35C210.392 29.35 209.442 28.5833 208.308 28.05C207.208 27.5167 206.042 27.25 204.808 27.25C203.808 27.25 202.808 27.4333 201.808 27.8C200.842 28.1333 199.958 28.7 199.158 29.5C198.392 30.2667 197.758 31.2667 197.258 32.5C196.792 33.7333 196.558 35.2167 196.558 36.95C196.558 38.8833 196.942 40.5833 197.708 42.05C198.508 43.5167 199.608 44.6833 201.008 45.55C202.408 46.3833 204.042 46.8 205.908 46.8C207.075 46.8 208.092 46.65 208.958 46.35C209.825 46.05 210.575 45.6833 211.208 45.25C211.842 44.7833 212.375 44.3167 212.808 43.85C213.242 43.55 213.658 43.4 214.058 43.4C214.558 43.4 214.958 43.5667 215.258 43.9C215.592 44.2333 215.758 44.6333 215.758 45.1C215.758 45.6667 215.492 46.1667 214.958 46.6C214.025 47.6333 212.758 48.55 211.158 49.35C209.558 50.1167 207.858 50.5 206.058 50.5ZM224.77 50C224.204 50 223.72 49.8 223.32 49.4C222.954 49 222.77 48.5167 222.77 47.95V26.15C222.77 25.5833 222.954 25.1167 223.32 24.75C223.72 24.35 224.204 24.15 224.77 24.15C225.37 24.15 225.854 24.35 226.22 24.75C226.587 25.1167 226.77 25.5833 226.77 26.15V32.75L226.17 31.7C226.37 30.6667 226.72 29.6667 227.22 28.7C227.754 27.7 228.42 26.8167 229.22 26.05C230.02 25.25 230.937 24.6333 231.97 24.2C233.004 23.7333 234.137 23.5 235.37 23.5C236.104 23.5 236.77 23.6833 237.37 24.05C238.004 24.3833 238.32 24.8667 238.32 25.5C238.32 26.2 238.137 26.7167 237.77 27.05C237.404 27.3833 236.987 27.55 236.52 27.55C236.087 27.55 235.67 27.4667 235.27 27.3C234.87 27.1 234.37 27 233.77 27C232.937 27 232.104 27.2333 231.27 27.7C230.47 28.1333 229.72 28.7667 229.02 29.6C228.354 30.4333 227.804 31.3833 227.37 32.45C226.97 33.4833 226.77 34.6 226.77 35.8V47.95C226.77 48.5167 226.57 49 226.17 49.4C225.804 49.8 225.337 50 224.77 50ZM253.666 50.5C250.999 50.5 248.666 49.9333 246.666 48.8C244.666 47.6667 243.099 46.1167 241.966 44.15C240.866 42.15 240.316 39.85 240.316 37.25C240.316 34.35 240.882 31.8833 242.016 29.85C243.182 27.7833 244.682 26.2167 246.516 25.15C248.382 24.05 250.349 23.5 252.416 23.5C253.949 23.5 255.432 23.7833 256.866 24.35C258.299 24.9167 259.566 25.75 260.666 26.85C261.766 27.9167 262.649 29.2167 263.316 30.75C263.982 32.25 264.332 33.9333 264.366 35.8C264.366 36.3333 264.166 36.7833 263.766 37.15C263.366 37.5167 262.899 37.7 262.366 37.7H242.616L241.716 34.25H260.966L260.166 34.95V33.85C260.032 32.4833 259.566 31.3167 258.766 30.35C257.999 29.35 257.049 28.5833 255.916 28.05C254.816 27.5167 253.649 27.25 252.416 27.25C251.416 27.25 250.416 27.4333 249.416 27.8C248.449 28.1333 247.566 28.7 246.766 29.5C245.999 30.2667 245.366 31.2667 244.866 32.5C244.399 33.7333 244.166 35.2167 244.166 36.95C244.166 38.8833 244.549 40.5833 245.316 42.05C246.116 43.5167 247.216 44.6833 248.616 45.55C250.016 46.3833 251.649 46.8 253.516 46.8C254.682 46.8 255.699 46.65 256.566 46.35C257.432 46.05 258.182 45.6833 258.816 45.25C259.449 44.7833 259.982 44.3167 260.416 43.85C260.849 43.55 261.266 43.4 261.666 43.4C262.166 43.4 262.566 43.5667 262.866 43.9C263.199 44.2333 263.366 44.6333 263.366 45.1C263.366 45.6667 263.099 46.1667 262.566 46.6C261.632 47.6333 260.366 48.55 258.766 49.35C257.166 50.1167 255.466 50.5 253.666 50.5Z" fill="black"/>
</svg>
